<svg width="187" height="187" viewBox="0 0 187 187" fill="none" xmlns="http://www.w3.org/2000/svg">
<path fill-rule="evenodd" clip-rule="evenodd" d="M170 64.5C170 90.7335 148.734 112 122.5 112C96.2665 112 75 90.7335 75 64.5C75 38.2665 96.2665 17 122.5 17C148.734 17 170 38.2665 170 64.5ZM187 64.5C187 100.122 158.122 129 122.5 129C108.967 129 96.4076 124.832 86.035 117.71C85.9688 117.782 85.9005 117.852 85.8302 117.921L17.6751 184.613C15.3067 186.931 11.5079 186.889 9.19035 184.521L2.19638 177.374C-0.121209 175.005 -0.0800101 171.206 2.28841 168.889L70.2755 102.361C62.5538 91.7281 58 78.6459 58 64.5C58 28.8776 86.8776 0 122.5 0C158.122 0 187 28.8776 187 64.5Z" fill="#5082CD"/>
</svg>
